<svg width="862" height="232" viewBox="0 0 862 232" fill="none" xmlns="http://www.w3.org/2000/svg">
<path d="M60.42 187.04C49.2733 187.04 38.5067 185.773 28.12 183.24C17.7333 180.707 9.18333 177.413 2.47 173.36L16.91 140.68C23.2433 144.353 30.2733 147.33 38 149.61C45.8533 151.763 53.4533 152.84 60.8 152.84C65.1067 152.84 68.4633 152.587 70.87 152.08C73.4033 151.447 75.24 150.623 76.38 149.61C77.52 148.47 78.09 147.14 78.09 145.62C78.09 143.213 76.76 141.313 74.1 139.92C71.44 138.527 67.8933 137.387 63.46 136.5C59.1533 135.487 54.4033 134.473 49.21 133.46C44.0167 132.32 38.76 130.863 33.44 129.09C28.2467 127.317 23.4333 124.973 19 122.06C14.6933 119.147 11.21 115.347 8.55 110.66C5.89 105.847 4.56 99.8933 4.56 92.8C4.56 84.5667 6.84 77.0933 11.4 70.38C16.0867 63.54 22.99 58.0933 32.11 54.04C41.3567 49.9867 52.82 47.96 66.5 47.96C75.4933 47.96 84.36 48.91 93.1 50.81C101.84 52.71 109.693 55.6233 116.66 59.55L103.17 92.04C96.5833 88.7467 90.1867 86.2767 83.98 84.63C77.9 82.9833 71.9467 82.16 66.12 82.16C61.8133 82.16 58.3933 82.54 55.86 83.3C53.3267 84.06 51.49 85.0733 50.35 86.34C49.3367 87.6067 48.83 89 48.83 90.52C48.83 92.8 50.16 94.6367 52.82 96.03C55.48 97.2967 58.9633 98.3733 63.27 99.26C67.7033 100.147 72.5167 101.097 77.71 102.11C83.03 103.123 88.2867 104.517 93.48 106.29C98.6733 108.063 103.423 110.407 107.73 113.32C112.163 116.233 115.71 120.033 118.37 124.72C121.03 129.407 122.36 135.233 122.36 142.2C122.36 150.307 120.017 157.78 115.33 164.62C110.77 171.333 103.93 176.78 94.81 180.96C85.69 185.013 74.2267 187.04 60.42 187.04ZM121.263 184L179.403 51H223.483L281.623 184H235.263L192.323 72.28H209.803L166.863 184H121.263ZM155.843 160.82L167.243 128.52H228.423L239.823 160.82H155.843ZM355.894 187.04C345.127 187.04 335.184 185.393 326.064 182.1C317.07 178.68 309.217 173.867 302.504 167.66C295.917 161.453 290.787 154.107 287.114 145.62C283.44 137.133 281.604 127.76 281.604 117.5C281.604 107.24 283.44 97.8667 287.114 89.38C290.787 80.8933 295.98 73.5467 302.694 67.34C309.407 61.1333 317.324 56.3833 326.444 53.09C335.69 49.67 345.824 47.96 356.844 47.96C370.017 47.96 381.734 50.1767 391.994 54.61C402.38 59.0433 410.93 65.3767 417.644 73.61L388.954 98.88C384.774 94.0667 380.214 90.4567 375.274 88.05C370.46 85.5167 365.077 84.25 359.124 84.25C354.184 84.25 349.687 85.01 345.634 86.53C341.707 88.05 338.35 90.2667 335.564 93.18C332.777 96.0933 330.624 99.5767 329.104 103.63C327.584 107.683 326.824 112.307 326.824 117.5C326.824 122.44 327.584 127 329.104 131.18C330.624 135.233 332.777 138.717 335.564 141.63C338.35 144.543 341.644 146.823 345.444 148.47C349.37 149.99 353.74 150.75 358.554 150.75C363.62 150.75 368.56 149.927 373.374 148.28C378.187 146.507 383.317 143.53 388.764 139.35L413.844 170.13C405.737 175.577 396.49 179.757 386.104 182.67C375.717 185.583 365.647 187.04 355.894 187.04ZM374.894 164.43V113.89H413.844V170.13L374.894 164.43ZM501.919 187.04C491.152 187.04 481.209 185.393 472.089 182.1C463.096 178.68 455.242 173.867 448.529 167.66C441.942 161.453 436.812 154.107 433.139 145.62C429.466 137.133 427.629 127.76 427.629 117.5C427.629 107.24 429.466 97.8667 433.139 89.38C436.812 80.8933 442.006 73.5467 448.719 67.34C455.432 61.1333 463.349 56.3833 472.469 53.09C481.716 49.67 491.849 47.96 502.869 47.96C516.042 47.96 527.759 50.1767 538.019 54.61C548.406 59.0433 556.956 65.3767 563.669 73.61L534.979 98.88C530.799 94.0667 526.239 90.4567 521.299 88.05C516.486 85.5167 511.102 84.25 505.149 84.25C500.209 84.25 495.712 85.01 491.659 86.53C487.732 88.05 484.376 90.2667 481.589 93.18C478.802 96.0933 476.649 99.5767 475.129 103.63C473.609 107.683 472.849 112.307 472.849 117.5C472.849 122.44 473.609 127 475.129 131.18C476.649 135.233 478.802 138.717 481.589 141.63C484.376 144.543 487.669 146.823 491.469 148.47C495.396 149.99 499.766 150.75 504.579 150.75C509.646 150.75 514.586 149.927 519.399 148.28C524.212 146.507 529.342 143.53 534.789 139.35L559.869 170.13C551.762 175.577 542.516 179.757 532.129 182.67C521.742 185.583 511.672 187.04 501.919 187.04ZM520.919 164.43V113.89H559.869V170.13L520.919 164.43ZM578.975 184V51H623.815V184H578.975ZM715.13 187.04C704.364 187.04 694.357 185.33 685.11 181.91C675.99 178.49 668.074 173.677 661.36 167.47C654.647 161.137 649.39 153.727 645.59 145.24C641.917 136.753 640.08 127.507 640.08 117.5C640.08 107.367 641.917 98.12 645.59 89.76C649.39 81.2733 654.647 73.9267 661.36 67.72C668.074 61.3867 675.99 56.51 685.11 53.09C694.357 49.67 704.364 47.96 715.13 47.96C726.024 47.96 736.03 49.67 745.15 53.09C754.27 56.51 762.187 61.3867 768.9 67.72C775.614 73.9267 780.807 81.2733 784.48 89.76C788.28 98.12 790.18 107.367 790.18 117.5C790.18 127.507 788.28 136.753 784.48 145.24C780.807 153.727 775.614 161.137 768.9 167.47C762.187 173.677 754.27 178.49 745.15 181.91C736.03 185.33 726.024 187.04 715.13 187.04ZM715.13 150.75C719.31 150.75 723.174 149.99 726.72 148.47C730.394 146.95 733.56 144.797 736.22 142.01C739.007 139.097 741.16 135.613 742.68 131.56C744.2 127.38 744.96 122.693 744.96 117.5C744.96 112.307 744.2 107.683 742.68 103.63C741.16 99.45 739.007 95.9667 736.22 93.18C733.56 90.2667 730.394 88.05 726.72 86.53C723.174 85.01 719.31 84.25 715.13 84.25C710.95 84.25 707.024 85.01 703.35 86.53C699.804 88.05 696.637 90.2667 693.85 93.18C691.19 95.9667 689.1 99.45 687.58 103.63C686.06 107.683 685.3 112.307 685.3 117.5C685.3 122.693 686.06 127.38 687.58 131.56C689.1 135.613 691.19 139.097 693.85 142.01C696.637 144.797 699.804 146.95 703.35 148.47C707.024 149.99 710.95 150.75 715.13 150.75Z" fill="#048BA8"/>
<circle cx="716.42" cy="115.5" r="79.5" fill="url(#paint0_linear_16_6)"/>
<path d="M654.359 164.098C584.732 187.819 607.557 162.217 641.408 142.171L639.613 136.914C529.031 205.438 605.59 187.178 657.693 169.483C684.569 161.892 758.991 128.753 795.407 106.652C920.658 30.6402 838.705 50.8742 782.072 70.4928L785.021 75.3653C849.903 52.5998 845.544 69.4669 794.766 100.754C754.144 125.784 684.236 153.412 654.359 164.098Z" fill="#543366"/>
<path d="M688.723 54.2081C699.751 51.3016 752.195 48.9508 776.045 86.9056C761.427 37.5387 710.137 39.7185 688.723 54.2081Z" fill="#543366"/>
<defs>
<linearGradient id="paint0_linear_16_6" x1="748.733" y1="43.8218" x2="676.285" y2="183.844" gradientUnits="userSpaceOnUse">
<stop stop-color="#FF6B6B"/>
<stop offset="0.884999" stop-color="#7B4B95"/>
</linearGradient>
</defs>
</svg>
