<svg width="435" height="186" viewBox="0 0 435 186" fill="none" xmlns="http://www.w3.org/2000/svg">
<path d="M25.44 167.28C20.7467 167.28 16.2133 166.747 11.84 165.68C7.46667 164.613 3.86667 163.227 1.04 161.52L7.12 147.76C9.78667 149.307 12.7467 150.56 16 151.52C19.3067 152.427 22.5067 152.88 25.6 152.88C27.4133 152.88 28.8267 152.773 29.84 152.56C30.9067 152.293 31.68 151.947 32.16 151.52C32.64 151.04 32.88 150.48 32.88 149.84C32.88 148.827 32.32 148.027 31.2 147.44C30.08 146.853 28.5867 146.373 26.72 146C24.9067 145.573 22.9067 145.147 20.72 144.72C18.5333 144.24 16.32 143.627 14.08 142.88C11.8933 142.133 9.86667 141.147 8 139.92C6.18667 138.693 4.72 137.093 3.6 135.12C2.48 133.093 1.92 130.587 1.92 127.6C1.92 124.133 2.88 120.987 4.8 118.16C6.77333 115.28 9.68 112.987 13.52 111.28C17.4133 109.573 22.24 108.72 28 108.72C31.7867 108.72 35.52 109.12 39.2 109.92C42.88 110.72 46.1867 111.947 49.12 113.6L43.44 127.28C40.6667 125.893 37.9733 124.853 35.36 124.16C32.8 123.467 30.2933 123.12 27.84 123.12C26.0267 123.12 24.5867 123.28 23.52 123.6C22.4533 123.92 21.68 124.347 21.2 124.88C20.7733 125.413 20.56 126 20.56 126.64C20.56 127.6 21.12 128.373 22.24 128.96C23.36 129.493 24.8267 129.947 26.64 130.32C28.5067 130.693 30.5333 131.093 32.72 131.52C34.96 131.947 37.1733 132.533 39.36 133.28C41.5467 134.027 43.5467 135.013 45.36 136.24C47.2267 137.467 48.72 139.067 49.84 141.04C50.96 143.013 51.52 145.467 51.52 148.4C51.52 151.813 50.5333 154.96 48.56 157.84C46.64 160.667 43.76 162.96 39.92 164.72C36.08 166.427 31.2533 167.28 25.44 167.28ZM51.0581 166L75.5381 110H94.0981L118.578 166H99.0581L80.9781 118.96H88.3381L70.2581 166H51.0581ZM65.6181 156.24L70.4181 142.64H96.1781L100.978 156.24H65.6181ZM149.85 167.28C145.317 167.28 141.13 166.587 137.29 165.2C133.503 163.76 130.197 161.733 127.37 159.12C124.597 156.507 122.437 153.413 120.89 149.84C119.343 146.267 118.57 142.32 118.57 138C118.57 133.68 119.343 129.733 120.89 126.16C122.437 122.587 124.623 119.493 127.45 116.88C130.277 114.267 133.61 112.267 137.45 110.88C141.343 109.44 145.61 108.72 150.25 108.72C155.797 108.72 160.73 109.653 165.05 111.52C169.423 113.387 173.023 116.053 175.85 119.52L163.77 130.16C162.01 128.133 160.09 126.613 158.01 125.6C155.983 124.533 153.717 124 151.21 124C149.13 124 147.237 124.32 145.53 124.96C143.877 125.6 142.463 126.533 141.29 127.76C140.117 128.987 139.21 130.453 138.57 132.16C137.93 133.867 137.61 135.813 137.61 138C137.61 140.08 137.93 142 138.57 143.76C139.21 145.467 140.117 146.933 141.29 148.16C142.463 149.387 143.85 150.347 145.45 151.04C147.103 151.68 148.943 152 150.97 152C153.103 152 155.183 151.653 157.21 150.96C159.237 150.213 161.397 148.96 163.69 147.2L174.25 160.16C170.837 162.453 166.943 164.213 162.57 165.44C158.197 166.667 153.957 167.28 149.85 167.28ZM157.85 157.76V136.48H174.25V160.16L157.85 157.76ZM211.334 167.28C206.801 167.28 202.614 166.587 198.774 165.2C194.988 163.76 191.681 161.733 188.854 159.12C186.081 156.507 183.921 153.413 182.374 149.84C180.828 146.267 180.054 142.32 180.054 138C180.054 133.68 180.828 129.733 182.374 126.16C183.921 122.587 186.108 119.493 188.934 116.88C191.761 114.267 195.094 112.267 198.934 110.88C202.828 109.44 207.094 108.72 211.734 108.72C217.281 108.72 222.214 109.653 226.534 111.52C230.908 113.387 234.508 116.053 237.334 119.52L225.254 130.16C223.494 128.133 221.574 126.613 219.494 125.6C217.468 124.533 215.201 124 212.694 124C210.614 124 208.721 124.32 207.014 124.96C205.361 125.6 203.948 126.533 202.774 127.76C201.601 128.987 200.694 130.453 200.054 132.16C199.414 133.867 199.094 135.813 199.094 138C199.094 140.08 199.414 142 200.054 143.76C200.694 145.467 201.601 146.933 202.774 148.16C203.948 149.387 205.334 150.347 206.934 151.04C208.588 151.68 210.428 152 212.454 152C214.588 152 216.668 151.653 218.694 150.96C220.721 150.213 222.881 148.96 225.174 147.2L235.734 160.16C232.321 162.453 228.428 164.213 224.054 165.44C219.681 166.667 215.441 167.28 211.334 167.28ZM219.334 157.76V136.48H235.734V160.16L219.334 157.76ZM243.779 166V110H262.659V166H243.779ZM301.108 167.28C296.574 167.28 292.361 166.56 288.468 165.12C284.628 163.68 281.294 161.653 278.468 159.04C275.641 156.373 273.428 153.253 271.828 149.68C270.281 146.107 269.508 142.213 269.508 138C269.508 133.733 270.281 129.84 271.828 126.32C273.428 122.747 275.641 119.653 278.468 117.04C281.294 114.373 284.628 112.32 288.468 110.88C292.361 109.44 296.574 108.72 301.108 108.72C305.694 108.72 309.908 109.44 313.748 110.88C317.588 112.32 320.921 114.373 323.748 117.04C326.574 119.653 328.761 122.747 330.308 126.32C331.908 129.84 332.708 133.733 332.708 138C332.708 142.213 331.908 146.107 330.308 149.68C328.761 153.253 326.574 156.373 323.748 159.04C320.921 161.653 317.588 163.68 313.748 165.12C309.908 166.56 305.694 167.28 301.108 167.28ZM301.108 152C302.868 152 304.494 151.68 305.988 151.04C307.534 150.4 308.868 149.493 309.988 148.32C311.161 147.093 312.068 145.627 312.708 143.92C313.348 142.16 313.668 140.187 313.668 138C313.668 135.813 313.348 133.867 312.708 132.16C312.068 130.4 311.161 128.933 309.988 127.76C308.868 126.533 307.534 125.6 305.988 124.96C304.494 124.32 302.868 124 301.108 124C299.348 124 297.694 124.32 296.148 124.96C294.654 125.6 293.321 126.533 292.148 127.76C291.028 128.933 290.148 130.4 289.508 132.16C288.868 133.867 288.548 135.813 288.548 138C288.548 140.187 288.868 142.16 289.508 143.92C290.148 145.627 291.028 147.093 292.148 148.32C293.321 149.493 294.654 150.4 296.148 151.04C297.694 151.68 299.348 152 301.108 152Z" fill="#048BA8"/>
<path d="M310.455 136.981C306.814 117.685 317.357 108.311 323.197 106.718C327.93 113.089 334.726 117.64 337.533 119.233C337.988 125.832 330.706 134.478 310.455 136.981Z" fill="#F4B942"/>
<path d="M317.745 127.424C315.484 115.818 322.032 110.179 325.659 109.221C328.599 113.053 332.819 115.791 334.562 116.749C334.845 120.718 330.323 125.919 317.745 127.424Z" fill="#AC000D"/>
<path d="M340.636 70.3657C363.553 37.8911 396.047 24.7347 409.43 22.2158C407.809 36.8862 397.815 72.3215 370.806 96.7001C365.015 102.327 350.912 115 340.83 120.676C332.598 118.014 325.136 111.878 320.931 103.307C327.689 88.9988 336.883 75.3844 340.636 70.3657Z" fill="url(#paint0_linear_281_635)"/>
<path d="M310.17 87.1285C319.035 82.5007 327.72 83.7228 330.955 84.9123L323.223 98.5213C314.085 89.6405 300.097 100.829 294.244 107.534C295.859 102.66 301.306 91.7562 310.17 87.1285Z" fill="#048BA8"/>
<path d="M358.325 129.161C361.713 119.752 359.328 111.312 357.712 108.268L345.273 117.768C355.307 125.622 346.112 140.994 340.26 147.699C344.87 145.44 354.938 138.57 358.325 129.161Z" fill="#048BA8"/>
<path d="M342.614 93.5816C343.844 93.9007 347.553 97.138 347.964 98.2508L332.063 116.468C328.326 120.317 322.614 125.134 316.793 128.347C319.287 122.38 323.19 115.835 326.926 111.555L342.614 93.5816Z" fill="#048BA8"/>
<circle cx="372.077" cy="65.0106" r="12.485" transform="rotate(41.1163 372.077 65.0106)" fill="#7BCCDD" stroke="#048BA8" stroke-width="4"/>
<defs>
<linearGradient id="paint0_linear_281_635" x1="409.35" y1="22.1459" x2="329.156" y2="114.022" gradientUnits="userSpaceOnUse">
<stop stop-color="#048BA8"/>
<stop offset="0.304999" stop-color="#EEF0F2"/>
</linearGradient>
</defs>
</svg>
